<?xml version="1.0" encoding="UTF-8"?><svg viewBox="0 0 500 227" xmlns="http://www.w3.org/2000/svg">
<defs>
    <style type="text/css">
      path {
        fill: #2C3E50;
      }

      @media (prefers-color-scheme: dark) {
        path { color: #ffffff;}
      }
    </style>
  </defs>
<path d="M59.803 51C97.714 51 114 70.615 114 99.635v18.81c0 32.781-14.95 48.903-55.265 48.903H44.32V227H0V51zM220 51v25.527h-43.737v46.754h34.252v25.527h-34.252v52.665H220V227h-88V51h88zm73-51l8.457 33.828L306 21l10.625 30h7.019L360 227h-51.438l-5.386-38.156h-35.818L262.511 227H224l34.74-176h11.948L281 18l4.167 13.333L293 0zm203.48 51l-36.293 73.624L500 227h-53.083L422 143.434v-16.66L454.5 51h41.98zM417 51v176h-46V51h46zM288.383 74h-4.486L271 162h30l-12.617-88zM57.134 76H44v66h13.134C67.052 142 70 136.818 70 118.545v-19.09C70 81.455 67.052 76 57.134 76z" fill-rule="nonzero"/></svg>
